ply
format ascii 1.0
comment VCGLIB generated
element vertex 14
property float x
property float y
property float z
element face 0
property list uchar int vertex_indices
end_header
0.2083396 0.03030518 -0.2888129
0.2063509 0.03015804 -0.2893387 
0.2058029 0.03026938 -0.2870544
0.272502 0.03481061 -0.3094526
0.2691922 0.03500339 -0.3066824
0.2745932 0.03522934 -0.3061489
0.1986916 0.03077526 -0.3180678
0.2539088 0.0366417 -0.2916827
0.2506788 0.03604531 -0.2942063
0.247926 0.03649075 -0.2905879
0.1714721 0.03253108 -0.3138603
0.1699745 0.03272389 -0.3159939
0.1641921 0.03272983 -0.310551
0.2051106 0.02972717 -0.3191071